<svg width="134" height="36" viewBox="0 0 134 36" fill="none" xmlns="http://www.w3.org/2000/svg">
<g clip-path="url(#clip0_28_128)">
<path d="M88.8719 0V26.1399C92.0963 26.2899 95.312 26.4712 98.5189 26.6851V32.2273C93.4328 31.8881 88.3415 31.6308 83.2471 31.4554V0H88.8719ZM133.57 0.00313043L126.246 16.9842L133.568 35.881L133.56 35.8844C131.425 35.5807 129.288 35.2917 127.149 35.0176L123.037 24.4117L118.886 34.033C116.918 33.8157 114.948 33.6104 112.974 33.4174L120.114 16.8704L113.575 0.0033913H119.66L123.321 9.4427L127.392 0.00313043H133.57ZM63.9422 31.1807V0.00286957H79.6439V5.59487H69.5671V12.8418H77.1915V18.384H69.5671V31.1797L63.9422 31.1807ZM42.9388 5.59513V0.0026087H60.3362V5.59487H54.4497V31.3323C52.5722 31.3818 50.6968 31.4397 48.8253 31.5104V5.59513H42.9388ZM23.7096 33.1216V0.00365217H39.3331V5.59539H29.3337V13.17C31.6309 13.1405 34.8973 13.1074 36.9294 13.1121V18.6548C34.3857 18.6235 31.5143 18.6897 29.3337 18.7114V27.102C32.6644 26.8395 35.9977 26.6117 39.3331 26.4185V31.9612C34.1192 32.262 28.9107 32.649 23.7096 33.1221V33.1216ZM12.6756 20.3097L12.6753 0.0026087H18.3002V33.6443C16.244 33.8557 14.1915 34.0808 12.1429 34.3184L5.62925 15.6063V35.1198C3.75073 35.3645 1.87586 35.6194 0.00463867 35.8857V0.00313043H5.35012L12.6753 20.3097H12.6756ZM103.159 32.5615V0.00313043H108.784V33.0261C106.912 32.8591 105.037 32.7052 103.159 32.5617V32.5615Z" fill="#DB202C"/>
</g>
<defs>
<clipPath id="clip0_28_128">
<rect width="133.575" height="36" fill="white"/>
</clipPath>
</defs>
</svg>
